# AST/ASF file generated using VICON BodyLanguage
# -----------------------------------------------
:version 1.10
:name VICON
:units
  mass 1.0
  length 0.45
  angle deg
:documentation
   .ast/.asf automatically generated from VICON data using
   VICON BodyBuilder and BodyLanguage model FoxedUp or BRILLIANT.MOD
:root
   order TX TY TZ RX RY RZ
   axis XYZ
   position 0 0 0  
   orientation 0 0 0 
:bonedata
  begin
     id 1 
     name lhipjoint
     direction 0.623415 -0.642378 0.445763 
     length 2.49859 
     axis 0 0 0  XYZ
  end
  begin
     id 2 
     name lfemur
     direction 0.34202 -0.939693 0  
     length 6.69689  
     axis 0 0 20  XYZ
    dof rx ry rz
    limits (-160.0 20.0)
           (-70.0 70.0)
           (-60.0 70.0)
  end
  begin
     id 3 
     name ltibia
     direction 0.34202 -0.939693 0   
     length 7.37574   
     axis 0 0 20   XYZ
    dof rx
    limits (-10.0 170.0)
  end
  begin
     id 4 
     name lfoot
     direction 0.084323 -0.231675 0.969132   
     length 2.09111   
     axis -90 7.62852e-016 20   XYZ
    dof rx rz
    limits (-45.0 90.0)
           (-70.0 20.0)
  end
  begin
     id 5 
     name ltoes
     direction 1.5357e-011 -4.21957e-011 1   
     length 1.04989   
     axis -90 7.62852e-016 20   XYZ
    dof rx
    limits (-90.0 20.0)
  end
  begin
     id 6 
     name rhipjoint
     direction -0.605402 -0.653903 0.45376   
     length 2.45455  
     axis 0 0 0  XYZ 
  end
  begin
     id 7 
     name rfemur
     direction -0.34202 -0.939693 0   
     length 6.64523   
     axis 0 0 -20   XYZ
    dof rx ry rz
    limits (-160.0 20.0)
           (-70.0 70.0)
           (-70.0 60.0)
  end
  begin
     id 8 
     name rtibia
     direction -0.34202 -0.939693 0   
     length 7.3339   
     axis 0 0 -20   XYZ
    dof rx
    limits (-10.0 170.0)
 end
 begin
     id 9 
     name rfoot
     direction -0.120854 -0.332043 0.93549   
     length 2.23135  
     axis -90 -7.62852e-016 -20   XYZ
    dof rx rz
    limits (-45.0 90.0)
           (-20.0 70.0)
  end
  begin
     id 10 
     name rtoes
     direction -1.53563e-011 -4.21914e-011 1   
     length 1.10614   
     axis -90 -7.62852e-016 -20   XYZ
    dof rx
    limits (-90.0 20.0)
  end
  begin
     id 11 
     name lowerback
     direction 0.0319682 0.998615 -0.0417941   
     length 2.02718   
     axis 0 0 0   XYZ
    dof rx ry rz
    limits (-20.0 45.0)
           (-30.0 30.0)
           (-30.0 30.0)
  end
  begin
     id 12 
     name upperback
     direction 7.63181e-005 0.995808 0.0914691   
     length 1.97539   
     axis 0 0 0   XYZ
    dof rx ry rz
    limits (-20.0 45.0)
           (-30.0 30.0)
           (-30.0 30.0)
  end
  begin
     id 13 
     name thorax
     direction -0.016423 0.993627 0.111514   
     length 2.00349   
     axis 0 0 0   XYZ
    dof rx ry rz
    limits (-20.0 45.0)
           (-30.0 30.0)
           (-30.0 30.0)
  end
  begin
     id 14 
     name lowerneck
     direction -0.174763 0.981668 -0.0760716   
     length 1.71436   
     axis 0 0 0   XYZ
    dof rx ry rz
    limits (-20.0 45.0)
           (-30.0 30.0)
           (-30.0 30.0)
  end
  begin
     id 15 
     name upperneck
     direction 0.345458 0.934587 -0.0848868   
     length 1.72805   
     axis 0 0 0   XYZ
    dof rx ry rz
    limits (-20.0 45.0)
           (-30.0 30.0)
           (-30.0 30.0)
  end
  begin
     id 16
     name head
     direction 0.13001 0.989848 -0.0574291  
     length 1.767  
     axis 0 0 0   XYZ
    dof rx ry rz
    limits (-20.0 45.0)
           (-30.0 30.0)
           (-30.0 30.0)
  end
  begin
     id 17 
     name lclavicle
     direction 0.952951 0.290122 0.0878234  
     length 3.54654  
     axis 0 0 0   XYZ
    dof ry rz
    limits (-20.0 10.0)
           (0.0 20.0)
  end
  begin
     id 18 
     name lhumerus
     direction 1 -4.48957e-011 -4.56525e-028   
     length 5.19807   
     axis 180 -30 -90   XYZ
    dof rx ry rz
    limits (-60.0 90.0)
           (-90.0 90.0)
           (-90.0 90.0)
  end
  begin
     id 19
     name lradius
     direction 1 -4.48979e-011 -2.0317e-027   
     length 3.0937   
     axis 180 -30 -90   XYZ
    dof rx
    limits (-10.0 170.0)
  end
  begin
     id 20
     name lwrist
     direction 1 -4.48953e-011 -3.05809e-027   
     length 1.54685   
     axis 8.48514e-016 90 90   XYZ
    dof ry
    limits (-180.0 0.0)
 end
  begin
     id 21 
     name lhand
     direction 1 -4.48952e-011 -6.11639e-027   
     length 0.672632   
     axis 3.9013e-015 90 90   XYZ
    dof rx rz
    limits (-90.0 90.0)
           (-45.0 45.0)
  end
  begin
     id 22 
     name lfingers
     direction 1 -4.48925e-011 -1.22426e-026   
     length 0.542293   
     axis 7.80276e-015 90 90   XYZ
    dof rx
    limits (0.0 90.0)
  end
  begin
     id 23
     name lthumb
     direction 0.707107 -6.3486e-011 0.707107   
     length 0.778628   
     axis -90 45 5.37419e-014   XYZ
    dof rx rz
    limits (-45.0 45.0)
           (-45.0 45.0)
  end
  begin
     id 24 
     name rclavicle
     direction -0.960732 0.273675 -0.0457849   
     length 3.52079  
     axis 0 0 0   XYZ 
    dof ry rz
    limits (-10.0 20.0)
           (-20.0 0.0)
  end
  begin
     id 25 
     name rhumerus
     direction -1 -4.48976e-011 -1.63613e-027  
     length 5.45222   
     axis 180 30 90   XYZ
    dof rx ry rz
    limits (-90.0 60.0)
           (-90.0 90.0)
           (-90.0 90.0)
  end
  begin
     id 26 
     name rradius
     direction -1 -4.48957e-011 -7.00033e-028   
     length 3.01284   
     axis 180 30 90   XYZ
    dof rx
    limits (-10.0 170.0)
  end
  begin
     id 27 
     name rwrist
     direction -1 -4.48983e-011 -3.05543e-027   
     length 1.50642   
     axis 8.48514e-016 -90 -90   XYZ
    dof ry
    limits (-180.0 0.0)
  end
  begin
     id 28
     name rhand
     direction -1 -4.48984e-011 -6.11072e-027   
     length 0.622296   
     axis 3.9013e-015 -90 -90   XYZ
    dof rx rz
    limits (-90.0 90.0)
           (-45.0 45.0)
  end
  begin
     id 29
     name rfingers
     direction -1 -4.48865e-011 -1.22637e-026   
     length 0.501711   
     axis 7.80276e-015 -90 -90   XYZ
    dof rx
    limits (0.0 90.0)
  end
  begin
     id 30
     name rthumb
     direction -0.707107 -6.34932e-011 0.707107   
     length 0.72036   
     axis -90 -45 -5.37419e-014   XYZ
    dof rx rz
    limits (-45.0 45.0)
           (-45.0 45.0)
  end
:hierarchy
  begin
    root lhipjoint rhipjoint lowerback
    lhipjoint lfemur
    lfemur ltibia
    ltibia lfoot
    lfoot ltoes
    rhipjoint rfemur
    rfemur rtibia
    rtibia rfoot
    rfoot rtoes
    lowerback upperback
    upperback thorax
    thorax lowerneck lclavicle rclavicle
    lowerneck upperneck
    upperneck head
    lclavicle lhumerus
    lhumerus lradius
    lradius lwrist
    lwrist lhand lthumb
    lhand lfingers
    rclavicle rhumerus
    rhumerus rradius
    rradius rwrist
    rwrist rhand rthumb
    rhand rfingers
  end

#!OML:ASF H:\Not Pregnant\Project 1\Capture day 1\Session 1\non-pregnant.ASF
:FULLY-SPECIFIED
:DEGREES
416
root 9.55352 15.8793 15.0935 107.16 88.3643 99.3209
lowerback -0.732134 6.20069 0.831399
upperback -6.59223 8.37796 -3.26519
thorax -5.83718 4.11708 -4.19119
lowerneck 9.27513 -6.58932 -32.0132
upperneck 18.3791 -14.2478 30.943
head 8.90783 -7.65421 17.0056
rclavicle -2.5196e-014 -1.98785e-014
rhumerus -38.194 -2.59414 -86.6806
rradius 25.5046
rwrist 14.452
rhand -5.99292 -4.40923
rfingers 7.12502
rthumb 19.8392 -33.4167
lclavicle -2.5196e-014 -1.98785e-014
lhumerus -48.0513 0.721503 80.262
lradius 49.7482
lwrist 44.276
lhand -12.6642 -11.1899
lfingers 7.12502
lthumb 13.4169 18.3581
rfemur -14.3629 -4.7622 9.62041
rtibia 60.3416
rfoot -1.19964 25.005
rtoes -28.9959
lfemur -30.6402 -1.81237 -28.763
ltibia 34.723
lfoot -9.11882 -13.188
ltoes 15.7695
417
root 9.63885 15.877 15.0766 139.076 87.9801 131.272
lowerback -0.689752 6.08421 1.05282
upperback -6.52931 8.22817 -3.21958
thorax -5.78096 4.03303 -4.25875
lowerneck 9.13023 -6.5272 -32.0395
upperneck 18.4548 -14.1059 30.8843
head 8.90031 -7.57347 16.9983
rclavicle -8.54774e-015 -3.97569e-016
rhumerus -37.9275 -2.19624 -86.75
rradius 25.6288
rwrist 14.5361
rhand -6.24309 -4.29601
rfingers 7.12502
rthumb 19.5987 -33.3281
lclavicle -8.54774e-015 -3.97569e-016
lhumerus -47.9836 0.607368 80.3634
lradius 50.61
lwrist 44.2798
lhand -12.9083 -11.235
lfingers 7.12502
lthumb 13.1816 18.3283
rfemur -15.5181 -5.04015 9.71038
rtibia 61.0752
rfoot -3.19368 24.7335
rtoes -29.2057
lfemur -30.2896 -2.2518 -28.7922
ltibia 34.7857
lfoot -9.38432 -13.7385
ltoes 16.2604
418
root 9.7235 15.8754 15.0604 157.315 87.1783 149.553
lowerback -0.653749 5.96156 1.25292
upperback -6.46119 8.06966 -3.16568
thorax -5.7213 3.94613 -4.30522
lowerneck 8.99809 -6.4726 -32.0616
upperneck 18.5166 -13.9743 30.8089
head 8.88768 -7.49893 16.9775
rclavicle 4.79568e-014 -3.97569e-015
rhumerus -37.6583 -1.85992 -86.7675
rradius 25.7721
rwrist 14.5761
rhand -6.48598 -4.19308
rfingers 7.12502
rthumb 19.3651 -33.2488
lclavicle 4.79568e-014 -3.97569e-015
lhumerus -47.9379 0.482314 80.4727
lradius 51.4623
lwrist 44.2585
lhand -13.0964 -11.3049
lfingers 7.12502
lthumb 13.0003 18.2701
rfemur -16.6317 -5.26619 9.80618
rtibia 61.6759
rfoot -5.05655 24.2387
rtoes -29.4254
lfemur -29.9162 -2.74267 -28.8139
ltibia 34.8258
lfoot -9.63021 -14.2693
ltoes 16.7527
419
root 9.80743 15.8743 15.0447 166.562 86.179 158.853
lowerback -0.611993 5.83381 1.40931
upperback -6.38893 7.90283 -3.11909
thorax -5.66677 3.8571 -4.33621
lowerneck 8.8751 -6.4328 -32.0831
upperneck 18.5763 -13.866 30.7275
head 8.88184 -7.4367 16.9503
rclavicle 4.6118e-014 1.47101e-014
rhumerus -37.3935 -1.5762 -86.754
rradius 25.9393
rwrist 14.5424
rhand -6.7292 -4.11305
rfingers 7.12502
rthumb 19.1312 -33.1921
lclavicle 4.6118e-014 1.47101e-014
lhumerus -47.9112 0.327151 80.5848
lradius 52.3013
lwrist 44.2277
lhand -13.2187 -11.3904
lfingers 7.12502
lthumb 12.8823 18.192
rfemur -17.6999 -5.44167 9.87297
rtibia 62.1603
rfoot -6.79873 23.5051
rtoes -29.6504
lfemur -29.5057 -3.2688 -28.8649
ltibia 34.8278
lfoot -9.85533 -14.7988
ltoes 17.2243
420
root 9.89026 15.8731 15.0298 171.339 85.0919 163.698
lowerback -0.549214 5.70673 1.50407
upperback -6.31512 7.73487 -3.0837
thorax -5.62971 3.76992 -4.34814
lowerneck 8.75815 -6.41068 -32.1003
upperneck 18.6362 -13.784 30.6388
head 8.88498 -7.38779 16.9152
rclavicle -1.7344e-014 0
rhumerus -37.1449 -1.32815 -86.7172
rradius 26.1395
rwrist 14.4118
rhand -6.97305 -4.0662
rfingers 7.12502
rthumb 18.8967 -33.1683
lclavicle -1.7344e-014 0
lhumerus -47.9001 0.145794 80.6996
lradius 53.1161
lwrist 44.1858
lhand -13.2807 -11.4966
lfingers 7.12502
lthumb 12.8226 18.0896
rfemur -18.7285 -5.55311 9.89016
rtibia 62.5435
rfoot -8.41973 22.5402
rtoes -29.8454
lfemur -29.0561 -3.79641 -28.967
ltibia 34.788
lfoot -10.051 -15.347
ltoes 17.7232
421
root 9.97202 15.8718 15.0158 173.908 83.9584 166.343
lowerback -0.468624 5.5838 1.53091
upperback -6.23915 7.57038 -3.0562
thorax -5.60804 3.68725 -4.33349
lowerneck 8.64803 -6.40612 -32.1191
upperneck 18.6933 -13.729 30.5472
head 8.89716 -7.35295 16.8758
rclavicle 2.34566e-014 6.36111e-015
rhumerus -36.9125 -1.11813 -86.6521
rradius 26.3691
rwrist 14.2004
rhand -7.20377 -4.02147
rfingers 7.12502
rthumb 18.6748 -33.145
lclavicle 2.34566e-014 6.36111e-015
lhumerus -47.898 -0.0515595 80.8249
lradius 53.8983
lwrist 44.1235
lhand -13.2814 -11.6161
lfingers 7.12502
lthumb 12.8219 17.9701
rfemur -19.7188 -5.59487 9.85884
rtibia 62.8332
rfoot -9.92576 21.3632
rtoes -29.9732
lfemur -28.574 -4.30509 -29.1206
ltibia 34.7141
lfoot -10.2151 -15.9323
ltoes 18.2757
422
root 10.0518 15.8695 15.0018 175.443 82.7904 167.953
lowerback -0.371969 5.46426 1.52797
upperback -6.16621 7.4096 -3.03535
thorax -5.60129 3.60738 -4.31161
lowerneck 8.54906 -6.41227 -32.1377
upperneck 18.7416 -13.6912 30.4537
head 8.91119 -7.32736 16.8325
rclavicle -2.55935e-014 2.22639e-014
rhumerus -36.7032 -0.920245 -86.5694
rradius 26.6332
rwrist 13.9033
rhand -7.43674 -3.98616
rfingers 7.12502
rthumb 18.4507 -33.1311
lclavicle -2.55935e-014 2.22639e-014
lhumerus -47.9014 -0.273899 80.9597
lradius 54.6455
lwrist 44.0608
lhand -13.2279 -11.7382
lfingers 7.12502
lthumb 12.8735 17.8448
rfemur -20.6889 -5.575 9.79599
rtibia 63.0353
rfoot -11.3104 19.9983
rtoes -30.0235
lfemur -28.0867 -4.80038 -29.3071
ltibia 34.6196
lfoot -10.3453 -16.5519
ltoes 18.8686
423
root 10.13 15.8664 14.9881 176.419 81.5844 168.996
lowerback -0.270041 5.34294 1.49104
upperback -6.09749 7.24578 -3.01105
thorax -5.60669 3.52749 -4.26823
lowerneck 8.46687 -6.41857 -32.1663
upperneck 18.7734 -13.6566 30.3603
head 8.91859 -7.30534 16.7896
rclavicle -1.20762e-014 5.1684e-015
rhumerus -36.5215 -0.724743 -86.4595
rradius 26.9293
rwrist 13.5549
rhand -7.68393 -3.96431
rfingers 7.12502
rthumb 18.2129 -33.1316
lclavicle -1.20762e-014 5.1684e-015
lhumerus -47.9102 -0.50536 81.1064
lradius 55.3526
lwrist 44.0011
lhand -13.1299 -11.8497
lfingers 7.12502
lthumb 12.968 17.7273
rfemur -21.6355 -5.50291 9.70764
rtibia 63.1478
rfoot -12.5639 18.4705
rtoes -29.9827
lfemur -27.6061 -5.27593 -29.5189
ltibia 34.5181
lfoot -10.443 -17.2231
ltoes 19.5247
424
root 10.2068 15.8623 14.9748 177.058 80.3386 169.696
lowerback -0.163253 5.21983 1.41542
upperback -6.0345 7.07893 -2.97758
thorax -5.62654 3.44787 -4.19483
lowerneck 8.41855 -6.41239 -32.1964
upperneck 18.7729 -13.6076 30.2623
head 8.90179 -7.27864 16.7428
rclavicle 4.8901e-014 2.0276e-014
rhumerus -36.3773 -0.508297 -86.3246
rradius 27.2619
rwrist 13.1367
rhand -7.93515 -3.94864
rfingers 7.12502
rthumb 17.9712 -33.1384
lclavicle 4.8901e-014 2.0276e-014
lhumerus -47.9292 -0.744046 81.2692
lradius 56.0233
lwrist 43.9617
lhand -12.9809 -11.9132
lfingers 7.12502
lthumb 13.1116 17.6546
rfemur -22.549 -5.37891 9.59531
rtibia 63.1667
rfoot -13.6867 16.796
rtoes -29.8557
lfemur -27.1337 -5.76213 -29.7466
ltibia 34.4224
lfoot -10.5191 -17.915
ltoes 20.2347
425
root 10.2824 15.8575 14.9621 177.532 79.0612 170.227
lowerback -0.0490254 5.09898 1.33723
upperback -5.97798 6.91496 -2.9516
thorax -5.65616 3.3695 -4.12862
lowerneck 8.40442 -6.39656 -32.2193
upperneck 18.7415 -13.5511 30.1792
head 8.86523 -7.24908 16.7014
rclavicle 5.28022e-014 1.23246e-014
rhumerus -36.2589 -0.331763 -86.1772
rradius 27.6139
rwrist 12.6955
rhand -8.21982 -3.99052
rfingers 7.12502
rthumb 17.6973 -33.2052
lclavicle 5.28022e-014 1.23246e-014
lhumerus -47.9521 -1.02914 81.4353
lradius 56.654
lwrist 43.9468
lhand -12.8313 -11.9631
lfingers 7.12502
lthumb 13.2558 17.5954
rfemur -23.4259 -5.19709 9.47136
rtibia 63.0857
rfoot -14.6811 14.9982
rtoes -29.6846
lfemur -26.6746 -6.25535 -29.9753
ltibia 34.343
lfoot -10.5849 -18.6254
ltoes 20.9556
426
root 10.3572 15.8525 14.9512 177.937 77.8095 170.683
lowerback 0.0659033 4.99754 1.23219
upperback -5.92661 6.77646 -2.91396
thorax -5.69368 3.30521 -4.03645
lowerneck 8.41233 -6.37829 -32.2369
upperneck 18.6871 -13.4942 30.1001
head 8.81619 -7.21997 16.659
rclavicle -2.50966e-015 -3.89618e-014
rhumerus -36.1634 -0.17341 -86.0047
rradius 27.985
rwrist 12.2176
rhand -8.51529 -4.06173
rfingers 7.12502
rthumb 17.413 -33.3018
lclavicle -2.50966e-015 -3.89618e-014
lhumerus -47.9743 -1.31357 81.6098
lradius 57.2342
lwrist 43.9246
lhand -12.6843 -11.9996
lfingers 7.12502
lthumb 13.3975 17.5496
rfemur -24.2794 -4.89758 9.35599
rtibia 62.8976
rfoot -15.5427 13.1038
rtoes -29.4436
lfemur -26.2347 -6.74448 -30.178
ltibia 34.2901
lfoot -10.6525 -19.3075
ltoes 21.684
427
root 10.4315 15.8477 14.9418 178.409 76.5826 171.198
lowerback 0.177189 4.91427 1.15575
upperback -5.87914 6.66304 -2.87896
thorax -5.72746 3.25208 -3.96287
lowerneck 8.42625 -6.37031 -32.2316
upperneck 18.6199 -13.4529 30.0336
head 8.76714 -7.19637 16.6159
rclavicle -1.24166e-013 2.38542e-015
rhumerus -36.0751 -0.0551901 -85.8296
rradius 28.361
rwrist 11.7125
rhand -8.82058 -4.14007
rfingers 7.12502
rthumb 17.1191 -33.4059
lclavicle -1.24166e-013 2.38542e-015
lhumerus -47.9916 -1.62335 81.7694
lradius 57.7757
lwrist 43.9092
lhand -12.5581 -12.023
lfingers 7.12502
lthumb 13.5192 17.5182
rfemur -25.1102 -4.47787 9.27313
rtibia 62.5948
rfoot -16.2742 11.1682
rtoes -29.108
lfemur -25.8256 -7.23964 -30.3269
ltibia 34.2724
lfoot -10.7361 -19.9535
ltoes 22.3668
428
root 10.5054 15.8433 14.9338 178.998 75.3954 171.829
lowerback 0.280505 4.84745 1.09514
upperback -5.83407 6.57293 -2.81363
thorax -5.75903 3.21038 -3.86639
lowerneck 8.42972 -6.37323 -32.2547
upperneck 18.5596 -13.4293 29.9763
head 8.73367 -7.18322 16.5831
rclavicle -1.16264e-013 -2.98177e-014
rhumerus -35.992 0.0563833 -85.624
rradius 28.7342
rwrist 11.199
rhand -9.12329 -4.22674
rfingers 7.12502
rthumb 16.8278 -33.5176
lclavicle -1.16264e-013 -2.98177e-014
lhumerus -48.0146 -1.91031 81.9405
lradius 58.2751
lwrist 43.8931
lhand -12.4616 -12.0375
lfingers 7.12502
lthumb 13.6121 17.4975
rfemur -25.9182 -3.91947 9.2402
rtibia 62.1717
rfoot -16.8874 9.24498
rtoes -28.6792
lfemur -25.4495 -7.74656 -30.3987
ltibia 34.2959
lfoot -10.8347 -20.5428
ltoes 22.9919
429
root 10.5792 15.8395 14.9265 179.7 74.2104 172.562
lowerback 0.359585 4.7867 1.06973
upperback -5.78822 6.49278 -2.72701
thorax -5.77353 3.17278 -3.76463
lowerneck 8.42312 -6.38961 -32.2908
upperneck 18.4975 -13.4251 29.9268
head 8.71162 -7.18011 16.5549
rclavicle -4.87022e-014 -3.97569e-016
rhumerus -35.9111 0.175867 -85.4013
rradius 29.1087
rwrist 10.6587
rhand -9.41674 -4.31639
rfingers 7.12502
rthumb 16.5453 -33.631
lclavicle -4.87022e-014 -3.97569e-016
lhumerus -48.0323 -2.16427 82.1134
lradius 58.725
lwrist 43.858
lhand -12.3802 -12.0471
lfingers 7.12502
lthumb 13.6906 17.4826
rfemur -26.6976 -3.25942 9.24759
rtibia 61.627
rfoot -17.3999 7.39657
rtoes -28.1672
lfemur -25.1109 -8.30209 -30.3956
ltibia 34.3585
lfoot -10.9475 -21.0748
ltoes 23.539
430
root 10.6527 15.8364 14.9199 180.495 73.0341 173.377
lowerback 0.409456 4.7353 1.07943
upperback -5.74201 6.42721 -2.61668
thorax -5.76864 3.14172 -3.65494
lowerneck 8.41959 -6.41209 -32.3484
upperneck 18.421 -13.4329 29.8889
head 8.69208 -7.18482 16.535
rclavicle -7.20594e-015 -2.38542e-015
rhumerus -35.8171 0.258629 -85.139
rradius 29.4537
rwrist 10.16
rhand -9.7037 -4.37635
rfingers 7.12502
rthumb 16.269 -33.7138
lclavicle -7.20594e-015 -2.38542e-015
lhumerus -48.0369 -2.39656 82.2912
lradius 59.1219
lwrist 43.8354
lhand -12.32 -12.0479
lfingers 7.12502
lthumb 13.7486 17.4778
rfemur -27.4593 -2.48769 9.28999
rtibia 60.9663
rfoot -17.8226 5.67121
rtoes -27.59
lfemur -24.8128 -8.90102 -30.3168
ltibia 34.4511
lfoot -11.0767 -21.5474
ltoes 23.9799
